<svg id="Layer_1" data-name="Layer 1" xmlns="http://www.w3.org/2000/svg" viewBox="0 0 1715.49 195"><defs><style>.cls-1{fill:#f47621;stroke:#f47621;stroke-linejoin:round;}.cls-2{fill:#fdf8f3;}</style></defs><path class="cls-1" d="M96.61,96.73a115.61,115.61,0,0,1-52.62,97L-.4,149.34A115.6,115.6,0,0,1,96.61,96.73Z" transform="translate(0.9 0.76)"/><path class="cls-1" d="M193.6,149.34l-44.38,44.4a115.63,115.63,0,0,1-52.61-97A115.59,115.59,0,0,1,193.6,149.34Z" transform="translate(0.9 0.76)"/><path class="cls-1" d="M96.61,96.73A115.59,115.59,0,0,1-.4,44.11L44-.26A115.56,115.56,0,0,1,96.61,96.73Z" transform="translate(0.9 0.76)"/><path class="cls-1" d="M193.6,44.11a115.58,115.58,0,0,1-97,52.62,115.58,115.58,0,0,1,52.61-97Z" transform="translate(0.9 0.76)"/><path class="cls-2" d="M326.6,120.29h-35L234.85,34h43.81l19,29.89,10.71,17.68h2.44l10.72-17.68,19-29.89h44Zm.18,39.66H291.44V100.17h35.34Z" transform="translate(0.9 0.76)"/><path class="cls-2" d="M419.34,161.83q-16.36,0-28.86-5.92a45.19,45.19,0,0,1-19.46-17q-7-11.1-7-26.32,0-15.42,7-26.42a45.39,45.39,0,0,1,19.46-16.92q12.5-5.92,28.86-5.92,16.53,0,29,5.92a45.58,45.58,0,0,1,19.36,16.92q7,11,7,26.42,0,15.23-7,26.32a45.38,45.38,0,0,1-19.36,17Q435.89,161.84,419.34,161.83Zm0-31.21c8,0,13.41-1.28,16.16-3.85s4.14-7.3,4.14-14.19-1.38-11.66-4.14-14.29-8.15-4-16.16-4-13.42,1.32-16.17,4-4.14,7.4-4.14,14.29,1.38,11.62,4.14,14.19S411.31,130.62,419.34,130.62Z" transform="translate(0.9 0.76)"/><path class="cls-2" d="M520.29,161.83q-13.15,0-21.81-4.7a30.59,30.59,0,0,1-12.88-12.78,39.15,39.15,0,0,1-4.23-18.43V65.2h35.35V113q0,9.78,4.6,13.54T538,130.25q12.22,0,16.27-3.48t4-12.69h3.57l3,17.11h-6.21A37.55,37.55,0,0,1,553.57,146a31.28,31.28,0,0,1-12.22,11.38Q533.27,161.83,520.29,161.83ZM593.61,160H560.52V130.81l-2.25-.94V65.2h35.34Z" transform="translate(0.9 0.76)"/><path class="cls-2" d="M640.4,160H605.06V65.2h33.09V94.34l2.25.94Zm75,0H680.07V112.2q0-10-4.32-13.63t-16-3.67q-11.65,0-15.51,3.48t-3.86,12.69h-3.57l-3-17.11H640a40.68,40.68,0,0,1,5.17-14.85,30.63,30.63,0,0,1,12-11.37q8-4.41,20.59-4.42,12.78,0,21.15,4.7a29.76,29.76,0,0,1,12.4,12.78,40.62,40.62,0,0,1,4,18.43Z" transform="translate(0.9 0.76)"/><path class="cls-2" d="M767,149.42q-14.1,0-23.88-5.17A35.16,35.16,0,0,1,728.2,129.4Q723,119.73,723,106.18q0-13.34,5.36-22.93A36.05,36.05,0,0,1,743.9,68.49Q754,63.32,768,63.32q14.47,0,23.59,5.92t11,18.14h5.83L805.75,106h-3.57c0-3.39-.79-6-2.35-7.71s-4-2.94-7.24-3.57a69.9,69.9,0,0,0-12.79-.94A52.94,52.94,0,0,0,766.93,95q-4.62,1.23-6.4,3.85a13,13,0,0,0-1.78,7.33,13.94,13.94,0,0,0,1.78,7.53c1.19,1.87,3.32,3.26,6.4,4.13a48.93,48.93,0,0,0,12.87,1.32q11.85,0,17.11-2.16t5.27-9.69h3.57v19.18H800.3a26.71,26.71,0,0,1-9.78,16.64Q782.63,149.43,767,149.42Zm13.91,44.37q-16.54,0-28.2-4.51t-17.86-13.16q-6.2-8.66-6.2-21.06H764a14,14,0,0,0,1,5.93c.68,1.44,2.38,2.41,5.07,2.91a81.71,81.71,0,0,0,13.26.75,43.26,43.26,0,0,0,11.75-1.22,8.19,8.19,0,0,0,5.54-5.17q1.5-3.94,1.51-11.84V88.51h2.25V65.2h33.09V144q0,16.92-6.58,27.92a40.33,40.33,0,0,1-19.18,16.45Q799.18,193.79,780.93,193.79Z" transform="translate(0.9 0.76)"/><path class="cls-2" d="M936.22,161.83q-19.19,0-33.09-4.79T881.7,142.19q-7.53-10.06-7.52-26V115h35.34v4a10.51,10.51,0,0,0,1.79,6.49q1.79,2.34,7.42,3.29a118.29,118.29,0,0,0,17.49.93A135.79,135.79,0,0,0,952,129c3.38-.44,5.55-1.19,6.49-2.26a6.44,6.44,0,0,0,1.41-4.42,5.7,5.7,0,0,0-2.54-5.07q-2.54-1.69-10.25-2.64l-39.48-5.26q-11.65-1.69-19.55-6.3A30.16,30.16,0,0,1,876.25,91a37.43,37.43,0,0,1-4-17.68,36.87,36.87,0,0,1,3.19-14.85,36,36,0,0,1,10.34-13.25q7.15-5.93,18.8-9.5t28.77-3.57q20.11,0,33.18,5.55t19.55,15.79q6.5,10.24,6.49,24.35v1.12H957.27V76.1a11.63,11.63,0,0,0-2-7.14c-1.32-1.75-3.95-3-7.9-3.76s-9.87-1.13-17.76-1.13a82.58,82.58,0,0,0-13.73.85q-4.7.84-6.48,2.54A5.91,5.91,0,0,0,907.64,72a6.23,6.23,0,0,0,.85,3.29,5.31,5.31,0,0,0,2.82,2.16,29.18,29.18,0,0,0,5.36,1.32l39.48,5.82q15.4,2.26,23.87,7.81t11.85,13.06A37.76,37.76,0,0,1,995.25,121a36.62,36.62,0,0,1-5.92,20q-5.93,9.3-18.9,15T936.22,161.83Z" transform="translate(0.9 0.76)"/><path class="cls-2" d="M1055.65,161.83q-16.73,0-29.14-5.92a44.14,44.14,0,0,1-19.17-17q-6.76-11.1-6.77-26.32,0-15.42,6.77-26.42a44.32,44.32,0,0,1,19.17-16.92q12.42-5.92,29.14-5.92,16.17,0,28.11,5.17t18.42,14.57q6.49,9.41,6.49,22.19v3h-35.16v-1.5q0-7.34-5-9.59T1054.9,94.9q-9.78,0-14.47,3.29t-4.7,14.39q0,10.9,4.7,14.19t14.47,3.29q8.65,0,13.63-2.16t5-9.49v-1.7h35.16v3.2a37.74,37.74,0,0,1-6.49,22q-6.48,9.39-18.42,14.66T1055.65,161.83Z" transform="translate(0.9 0.76)"/><path class="cls-2" d="M1152.81,160h-35.34V34h35.34Zm76.89,0h-35.34V112.2q0-10-4.51-13.63t-16.74-3.67q-8.08,0-12.5,1.51a9.94,9.94,0,0,0-6.11,5q-1.7,3.48-1.69,9.68h-4.32V94h6.2a44.33,44.33,0,0,1,5.73-15,31.68,31.68,0,0,1,12.13-11.28q7.89-4.32,19.93-4.32,12.58,0,20.87,4.89a30.71,30.71,0,0,1,12.31,13.25,43,43,0,0,1,4,18.9Z" transform="translate(0.9 0.76)"/><path class="cls-2" d="M1291.8,161.83q-16.36,0-28.86-5.92a45.25,45.25,0,0,1-19.46-17q-7-11.1-7-26.32,0-15.42,7-26.42a45.45,45.45,0,0,1,19.46-16.92q12.49-5.92,28.86-5.92,16.54,0,29,5.92a45.52,45.52,0,0,1,19.36,16.92q7,11,7,26.42,0,15.23-7,26.32a45.32,45.32,0,0,1-19.36,17Q1308.35,161.84,1291.8,161.83Zm0-31.21q12,0,16.17-3.85t4.13-14.19q0-10.33-4.13-14.29t-16.17-4q-12,0-16.17,4t-4.14,14.29q0,10.33,4.14,14.19T1291.8,130.62Z" transform="translate(0.9 0.76)"/><path class="cls-2" d="M1390.18,160h-35.35V34h35.35Z" transform="translate(0.9 0.76)"/><path class="cls-2" d="M1432,161.83q-16,0-24.72-7t-8.74-19a22.64,22.64,0,0,1,3.2-12,23,23,0,0,1,10-8.56q6.77-3.28,17.48-4.42l40.42-3.94v19.55l-31,3.57a5.78,5.78,0,0,0-3.47,1.13,3.15,3.15,0,0,0-1,2.44,2.79,2.79,0,0,0,2.16,2.92,22.85,22.85,0,0,0,6.3.66,83.37,83.37,0,0,0,14.85-1q5.46-1,7.9-3.85t2.44-8.09l2.64-.75V140h-2.64a26.84,26.84,0,0,1-11.46,15.89Q1447.43,161.84,1432,161.83Zm70.69-1.88h-33.09v-21h-1.88V105.25q0-7.16-3.66-9.12t-13.07-2q-8.64,0-11.94,2.07t-3.29,8.08v.76h-35.34v-.38a36.93,36.93,0,0,1,6.58-21.9q6.59-9.32,18.61-14.38t28-5.08q16.54,0,27.45,5.17a35.5,35.5,0,0,1,16.26,14.66q5.37,9.5,5.36,22.85Z" transform="translate(0.9 0.76)"/><path class="cls-2" d="M1549.13,160h-35.35V65.2h33.09V92.27l2.26.94Zm0-56.58h-6.58V90h6.2a37.68,37.68,0,0,1,5.08-13.92,26,26,0,0,1,10.24-9.4q6.5-3.37,15.89-3.38,10.53,0,16.92,4.23a24.21,24.21,0,0,1,9.3,11.56A45.44,45.44,0,0,1,1609.1,96v18.8h-35.35V103.74c0-4-.87-6.8-2.63-8.37s-4.95-2.35-9.59-2.35-8,.79-9.77,2.35S1549.13,99.6,1549.13,103.37Z" transform="translate(0.9 0.76)"/><path class="cls-2" d="M1665.52,161.83q-25,0-38.17-9.21t-13.16-25.57v-.75h35.35v1.88c0,2.63,1.09,4.26,3.29,4.89s6.48.94,12.88.94q9.19,0,11.65-1a3.54,3.54,0,0,0,2.44-3.47,3.1,3.1,0,0,0-1.88-3.11q-1.87-.84-8.46-1.59l-27.44-3q-14.67-1.5-22.38-8.37t-7.7-18.89A27,27,0,0,1,1616.73,79q4.8-7,15.6-11.38t28.49-4.32q16.53,0,27.73,3.95T1705.47,79q5.73,7.8,5.73,19.46v.75h-35.34V98.1a7.28,7.28,0,0,0-1-4c-.69-1.06-2.19-1.85-4.51-2.35a54.86,54.86,0,0,0-10.62-.75q-8.65,0-10.81,1.22a4.12,4.12,0,0,0-2.16,3.85,3.37,3.37,0,0,0,2.16,3q2.16,1.13,10.43,2.07l18.8,2.07q20.69,2.25,28.58,9.21t7.89,19a23.82,23.82,0,0,1-5.73,15.7q-5.73,6.85-16.64,10.8T1665.52,161.83Z" transform="translate(0.9 0.76)"/></svg>