<svg id="Layer_1" data-name="Layer 1" xmlns="http://www.w3.org/2000/svg" viewBox="0 0 2048.62 2048.62"><defs><style>.cls-1{fill:#f47621;stroke:#f47621;stroke-linejoin:round;}</style></defs><path class="cls-1" d="M1024.11,1024.08c0,428.88-221,806-555.34,1023.92L.19,1579.42C218.09,1245.1,595.23,1024.08,1024.11,1024.08Z" transform="translate(0.31 0.12)"/><path class="cls-1" d="M2047.81,1579.42,1579.45,2048c-334.32-217.9-555.34-595-555.34-1023.92C1452.77,1024.08,1830.13,1245.1,2047.81,1579.42Z" transform="translate(0.31 0.12)"/><path class="cls-1" d="M1024.11,1024.08c-428.88,0-806-221-1023.92-555.34L468.77.38C803.09,218.06,1024.11,595.42,1024.11,1024.08Z" transform="translate(0.31 0.12)"/><path class="cls-1" d="M2047.81,468.74c-217.68,334.32-595,555.34-1023.7,555.34,0-428.66,221-806,555.34-1023.7Z" transform="translate(0.31 0.12)"/></svg>